<svg xmlns="http://www.w3.org/2000/svg" width="244" height="27" fill="none"><path fill="#fff" stroke="#fff" stroke-width=".683" d="M90.758 8.47h0l-.004.003c-1.003 1.032-1.51 2.275-1.51 3.71v3.59c0 1.434.507 2.677 1.51 3.71h0l.007.006c1.032 1.003 2.275 1.51 3.71 1.51h9.89c1.46 0 2.705-.505 3.713-1.514 1.031-1.031 1.553-2.274 1.553-3.712v-3.59c0-1.438-.521-2.68-1.551-3.712-1.008-1.035-2.253-1.555-3.715-1.555h-9.89c-1.438 0-2.682.522-3.713 1.554zm14.936 2.38h-.001l.008.007c.39.367.579.802.579 1.325v3.59c0 .524-.189.959-.579 1.326h0l-.007.007a1.803 1.803 0 01-1.333.546h-9.89c-.53 0-.968-.18-1.333-.546a1.801 1.801 0 01-.546-1.332v-3.59c0-.53.18-.968.546-1.333a1.801 1.801 0 011.333-.546h9.89c.53 0 .967.18 1.333.546zm17.749.029l-.017.01-.015.011c-.029.022-.096.053-.239.053a.662.662 0 01-.282-.08l-6.731-3.95-.08-.047H112.981V20.998H116.328V11.194l6.272 3.546.029.017.031.01c.179.06.353.098.512.098.179 0 .364-.035.552-.098l.032-.01.029-.017 6.231-3.545V20.998H133.363V6.876h-3.099l-.08.047-6.741 3.956zm30.487-1.842l-.098.1v7.617l-13.995-9.776-.088-.062h-1.843c-.341 0-.633.137-.856.392a1.16 1.16 0 00-.333.838v12.852H139.983v-9.837l13.995 9.776.088.061H157.099V5.82l-.585.594-2.584 2.624zm6.634-.175l-.112.102V20.998H163.84V5.88l-.571.52-2.705 2.462zm26.588 8.79h-16.693V5.844l-.579.562-2.705 2.624-.104.1v9.79c0 .577.213 1.08.625 1.493h0l.01.01c.414.382.914.574 1.483.574h18.305V17.651h-.342zm3.807-8.79l-.111.102V20.998H194.235V5.88l-.571.52-2.705 2.462zm26.67.234h.342V5.748h-17.56l-.1.102-2.624 2.664-.572.582H217.629zm-17.034 11.902h.341v-5.971h17.035V11.68h-17.474l-.1.096-2.704 2.624-.104.1V20.998H200.595zm37.824-11.902h.13l.097-.087 2.987-2.664.669-.597h-17.779l-.097.087-2.987 2.664-.669.597h17.649zm0 5.93h.13l.097-.086 2.987-2.664.669-.596h-17.779l-.097.086-2.987 2.665-.669.596h17.649zm0 5.972h.13l.097-.086 2.987-2.665.669-.596h-17.779l-.097.087-2.987 2.664-.669.596h17.649z"/><path fill="#fff" fill-rule="evenodd" d="M64.753 11.06c0-2.422 1.977-4.386 4.416-4.386h17.08l-3.888 3.531H69.169a.858.858 0 00-.861.855c0 .473.385.856.86.856h12.776c2.439 0 4.416 1.964 4.416 4.386 0 2.423-1.977 4.387-4.416 4.387h-17.08l3.888-3.531h13.192c.475 0 .861-.383.861-.856a.858.858 0 00-.86-.855H69.168c-2.439 0-4.416-1.964-4.416-4.386z" clip-rule="evenodd"/><path fill="#787F8C" d="M24.607 22.22C11.017 22.22 0 17.246 0 11.11v4.391c0 6.136 11.017 11.11 24.607 11.11s24.608-4.974 24.608-11.11V11.111c0 6.135-11.018 11.11-24.608 11.11z"/><path fill="#306AF6" d="M0 11.093v0zM49.214 11.093v.018-.018z"/><path fill="#fff" d="M49.215 11.11C49.215 4.974 38.197 0 24.607 0S0 4.974 0 11.11c0 6.136 11.017 11.11 24.607 11.11 10.557 0 19.561-3.002 23.054-7.218l1.554.481v-4.356-.017zm-24.608 5.345c-6.962 0-12.606-2.393-12.606-5.345s5.644-5.345 12.606-5.345c6.963 0 12.607 2.393 12.607 5.345s-5.644 5.345-12.607 5.345z"/><path fill="#787F8C" d="M13.396 13.557c2.094-1.722 6.328-2.899 11.211-2.899 4.884 0 9.118 1.177 11.212 2.899.891-.733 1.395-1.565 1.395-2.447 0-2.952-5.644-5.345-12.607-5.345-6.962 0-12.606 2.393-12.606 5.345 0 .882.504 1.714 1.395 2.447z"/><path fill="#787F8C" d="M49.215 15.484c-.169-10.39-24.608-9.719-24.608-9.719l11.228 7.809s7.328 5.965-5.565 8.363l10.204-.32 8.74-6.133z"/></svg>